<mxfile host="Electron" agent="Mozilla/5.0 (Windows NT 10.0; Win64; x64) AppleWebKit/537.36 (KHTML, like Gecko) draw.io/28.0.6 Chrome/138.0.7204.100 Electron/37.2.3 Safari/537.36" version="28.0.6">
  <diagram name="Page-1" id="a46O988Q0XDhKZr7zk0e">
    <mxGraphModel dx="663" dy="645" grid="1" gridSize="10" guides="1" tooltips="1" connect="1" arrows="1" fold="1" page="1" pageScale="1" pageWidth="850" pageHeight="1100" math="0" shadow="0">
      <root>
        <mxCell id="0" />
        <mxCell id="1" parent="0" />
        <mxCell id="V_feu6MxluJqlCceOyIV-1" value="&lt;h1 style=&quot;margin-top: 0px;&quot;&gt;Data Flow Diagram&lt;/h1&gt;&lt;p&gt;&lt;br&gt;&lt;/p&gt;" style="text;html=1;whiteSpace=wrap;overflow=hidden;rounded=0;" vertex="1" parent="1">
          <mxGeometry x="40" y="30" width="240" height="50" as="geometry" />
        </mxCell>
        <mxCell id="V_feu6MxluJqlCceOyIV-12" value="erp_px_cat_G1V2" style="rounded=1;whiteSpace=wrap;html=1;fillColor=default;" vertex="1" parent="1">
          <mxGeometry x="347.5" y="430" width="105" height="20" as="geometry" />
        </mxCell>
        <mxCell id="V_feu6MxluJqlCceOyIV-14" value="erp_loc_a101" style="rounded=1;whiteSpace=wrap;html=1;fillColor=default;" vertex="1" parent="1">
          <mxGeometry x="347.5" y="470" width="105" height="20" as="geometry" />
        </mxCell>
        <mxCell id="V_feu6MxluJqlCceOyIV-15" value="crm_sales_details" style="rounded=1;whiteSpace=wrap;html=1;fillColor=default;" vertex="1" parent="1">
          <mxGeometry x="347.5" y="340" width="105" height="30" as="geometry" />
        </mxCell>
        <mxCell id="V_feu6MxluJqlCceOyIV-16" value="erp_cust_az12" style="rounded=1;whiteSpace=wrap;html=1;fillColor=default;" vertex="1" parent="1">
          <mxGeometry x="347.5" y="510" width="105" height="20" as="geometry" />
        </mxCell>
        <mxCell id="V_feu6MxluJqlCceOyIV-17" value="crm_cust_info" style="rounded=1;whiteSpace=wrap;html=1;fillColor=default;" vertex="1" parent="1">
          <mxGeometry x="347.5" y="240" width="105" height="30" as="geometry" />
        </mxCell>
        <mxCell id="V_feu6MxluJqlCceOyIV-18" value="crm_prd_info" style="rounded=1;whiteSpace=wrap;html=1;fillColor=default;" vertex="1" parent="1">
          <mxGeometry x="347.5" y="290" width="105" height="30" as="geometry" />
        </mxCell>
        <mxCell id="V_feu6MxluJqlCceOyIV-19" value="" style="endArrow=classic;html=1;rounded=0;entryX=0;entryY=0.5;entryDx=0;entryDy=0;" edge="1" parent="1" source="V_feu6MxluJqlCceOyIV-5" target="V_feu6MxluJqlCceOyIV-17">
          <mxGeometry width="50" height="50" relative="1" as="geometry">
            <mxPoint x="320" y="360" as="sourcePoint" />
            <mxPoint x="370" y="310" as="targetPoint" />
          </mxGeometry>
        </mxCell>
        <mxCell id="V_feu6MxluJqlCceOyIV-20" value="" style="endArrow=classic;html=1;rounded=0;entryX=0;entryY=0.5;entryDx=0;entryDy=0;" edge="1" parent="1" source="V_feu6MxluJqlCceOyIV-5" target="V_feu6MxluJqlCceOyIV-18">
          <mxGeometry width="50" height="50" relative="1" as="geometry">
            <mxPoint x="310" y="324" as="sourcePoint" />
            <mxPoint x="468" y="300" as="targetPoint" />
          </mxGeometry>
        </mxCell>
        <mxCell id="V_feu6MxluJqlCceOyIV-21" value="" style="endArrow=classic;html=1;rounded=0;entryX=0;entryY=0.5;entryDx=0;entryDy=0;" edge="1" parent="1" source="V_feu6MxluJqlCceOyIV-5" target="V_feu6MxluJqlCceOyIV-15">
          <mxGeometry width="50" height="50" relative="1" as="geometry">
            <mxPoint x="270" y="364" as="sourcePoint" />
            <mxPoint x="428" y="340" as="targetPoint" />
          </mxGeometry>
        </mxCell>
        <mxCell id="V_feu6MxluJqlCceOyIV-22" value="" style="endArrow=classic;html=1;rounded=0;entryX=0;entryY=0.5;entryDx=0;entryDy=0;" edge="1" parent="1" source="V_feu6MxluJqlCceOyIV-6" target="V_feu6MxluJqlCceOyIV-12">
          <mxGeometry width="50" height="50" relative="1" as="geometry">
            <mxPoint x="290" y="284" as="sourcePoint" />
            <mxPoint x="448" y="260" as="targetPoint" />
          </mxGeometry>
        </mxCell>
        <mxCell id="V_feu6MxluJqlCceOyIV-23" value="" style="endArrow=classic;html=1;rounded=0;entryX=0;entryY=0.5;entryDx=0;entryDy=0;" edge="1" parent="1" source="V_feu6MxluJqlCceOyIV-6" target="V_feu6MxluJqlCceOyIV-14">
          <mxGeometry width="50" height="50" relative="1" as="geometry">
            <mxPoint x="530" y="434" as="sourcePoint" />
            <mxPoint x="688" y="410" as="targetPoint" />
          </mxGeometry>
        </mxCell>
        <mxCell id="V_feu6MxluJqlCceOyIV-24" value="" style="endArrow=classic;html=1;rounded=0;entryX=0;entryY=0.5;entryDx=0;entryDy=0;" edge="1" parent="1" source="V_feu6MxluJqlCceOyIV-6" target="V_feu6MxluJqlCceOyIV-16">
          <mxGeometry width="50" height="50" relative="1" as="geometry">
            <mxPoint x="210" y="514" as="sourcePoint" />
            <mxPoint x="368" y="490" as="targetPoint" />
          </mxGeometry>
        </mxCell>
        <mxCell id="V_feu6MxluJqlCceOyIV-25" value="" style="group" vertex="1" connectable="0" parent="1">
          <mxGeometry x="135" y="260" width="60" height="45" as="geometry" />
        </mxCell>
        <mxCell id="V_feu6MxluJqlCceOyIV-5" value="" style="sketch=0;pointerEvents=1;shadow=0;dashed=0;html=1;strokeColor=none;labelPosition=center;verticalLabelPosition=bottom;verticalAlign=top;outlineConnect=0;align=center;shape=mxgraph.office.concepts.folder;fillColor=#DA4026;" vertex="1" parent="V_feu6MxluJqlCceOyIV-25">
          <mxGeometry x="5" width="50" height="45" as="geometry" />
        </mxCell>
        <mxCell id="V_feu6MxluJqlCceOyIV-7" value="CRM" style="text;html=1;align=center;verticalAlign=middle;whiteSpace=wrap;rounded=0;" vertex="1" parent="V_feu6MxluJqlCceOyIV-25">
          <mxGeometry y="15" width="60" height="30" as="geometry" />
        </mxCell>
        <mxCell id="V_feu6MxluJqlCceOyIV-26" value="" style="group" vertex="1" connectable="0" parent="1">
          <mxGeometry x="135" y="340" width="60" height="45" as="geometry" />
        </mxCell>
        <mxCell id="V_feu6MxluJqlCceOyIV-6" value="" style="sketch=0;pointerEvents=1;shadow=0;dashed=0;html=1;strokeColor=none;labelPosition=center;verticalLabelPosition=bottom;verticalAlign=top;outlineConnect=0;align=center;shape=mxgraph.office.concepts.folder;fillColor=#DA4026;" vertex="1" parent="V_feu6MxluJqlCceOyIV-26">
          <mxGeometry x="5" width="50" height="45" as="geometry" />
        </mxCell>
        <mxCell id="V_feu6MxluJqlCceOyIV-8" value="ERP" style="text;html=1;align=center;verticalAlign=middle;whiteSpace=wrap;rounded=0;" vertex="1" parent="V_feu6MxluJqlCceOyIV-26">
          <mxGeometry y="15" width="60" height="30" as="geometry" />
        </mxCell>
        <mxCell id="V_feu6MxluJqlCceOyIV-27" value="" style="group" vertex="1" connectable="0" parent="1">
          <mxGeometry x="330" y="180" width="140" height="370" as="geometry" />
        </mxCell>
        <mxCell id="V_feu6MxluJqlCceOyIV-10" value="" style="rounded=0;whiteSpace=wrap;html=1;fillStyle=hatch;" vertex="1" parent="V_feu6MxluJqlCceOyIV-27">
          <mxGeometry y="20" width="140" height="350" as="geometry" />
        </mxCell>
        <mxCell id="V_feu6MxluJqlCceOyIV-11" value="Bronze Layer" style="rounded=1;whiteSpace=wrap;html=1;fillColor=default;" vertex="1" parent="V_feu6MxluJqlCceOyIV-27">
          <mxGeometry x="25" width="90" height="40" as="geometry" />
        </mxCell>
        <mxCell id="V_feu6MxluJqlCceOyIV-28" value="" style="group" vertex="1" connectable="0" parent="1">
          <mxGeometry x="60" y="180" width="210" height="240" as="geometry" />
        </mxCell>
        <mxCell id="V_feu6MxluJqlCceOyIV-2" value="" style="whiteSpace=wrap;html=1;aspect=fixed;fillColor=none;" vertex="1" parent="V_feu6MxluJqlCceOyIV-28">
          <mxGeometry y="30" width="210" height="210" as="geometry" />
        </mxCell>
        <mxCell id="V_feu6MxluJqlCceOyIV-4" value="Sources" style="rounded=1;whiteSpace=wrap;html=1;fillColor=default;" vertex="1" parent="V_feu6MxluJqlCceOyIV-28">
          <mxGeometry x="50" width="120" height="60" as="geometry" />
        </mxCell>
      </root>
    </mxGraphModel>
  </diagram>
</mxfile>
